%TF.GenerationSoftware,KiCad,Pcbnew,8.0.4*%
%TF.CreationDate,2024-09-30T12:03:32+02:00*%
%TF.ProjectId,MuHack_10th_pendant,4d754861-636b-45f3-9130-74685f70656e,rev?*%
%TF.SameCoordinates,Original*%
%TF.FileFunction,Soldermask,Bot*%
%TF.FilePolarity,Negative*%
%FSLAX46Y46*%
G04 Gerber Fmt 4.6, Leading zero omitted, Abs format (unit mm)*
G04 Created by KiCad (PCBNEW 8.0.4) date 2024-09-30 12:03:32*
%MOMM*%
%LPD*%
G01*
G04 APERTURE LIST*
G04 Aperture macros list*
%AMRoundRect*
0 Rectangle with rounded corners*
0 $1 Rounding radius*
0 $2 $3 $4 $5 $6 $7 $8 $9 X,Y pos of 4 corners*
0 Add a 4 corners polygon primitive as box body*
4,1,4,$2,$3,$4,$5,$6,$7,$8,$9,$2,$3,0*
0 Add four circle primitives for the rounded corners*
1,1,$1+$1,$2,$3*
1,1,$1+$1,$4,$5*
1,1,$1+$1,$6,$7*
1,1,$1+$1,$8,$9*
0 Add four rect primitives between the rounded corners*
20,1,$1+$1,$2,$3,$4,$5,0*
20,1,$1+$1,$4,$5,$6,$7,0*
20,1,$1+$1,$6,$7,$8,$9,0*
20,1,$1+$1,$8,$9,$2,$3,0*%
%AMRotRect*
0 Rectangle, with rotation*
0 The origin of the aperture is its center*
0 $1 length*
0 $2 width*
0 $3 Rotation angle, in degrees counterclockwise*
0 Add horizontal line*
21,1,$1,$2,0,0,$3*%
G04 Aperture macros list end*
%ADD10C,3.100000*%
%ADD11C,0.000000*%
%ADD12RoundRect,0.250000X-0.325000X-0.450000X0.325000X-0.450000X0.325000X0.450000X-0.325000X0.450000X0*%
%ADD13RotRect,5.100000X5.100000X37.000000*%
%ADD14C,17.800000*%
%ADD15RoundRect,0.250000X-0.350000X-0.450000X0.350000X-0.450000X0.350000X0.450000X-0.350000X0.450000X0*%
%ADD16RoundRect,0.150000X-0.825000X-0.150000X0.825000X-0.150000X0.825000X0.150000X-0.825000X0.150000X0*%
%ADD17RoundRect,0.250000X0.450000X-0.350000X0.450000X0.350000X-0.450000X0.350000X-0.450000X-0.350000X0*%
%ADD18R,0.800000X1.000000*%
%ADD19R,1.500000X0.700000*%
%ADD20RoundRect,0.250000X0.325000X0.450000X-0.325000X0.450000X-0.325000X-0.450000X0.325000X-0.450000X0*%
%ADD21R,1.000000X3.150000*%
%ADD22RoundRect,0.250000X0.350000X0.450000X-0.350000X0.450000X-0.350000X-0.450000X0.350000X-0.450000X0*%
G04 APERTURE END LIST*
D10*
X98910000Y-67120000D02*
G75*
G02*
X95810000Y-67120000I-1550000J0D01*
G01*
X95810000Y-67120000D02*
G75*
G02*
X98910000Y-67120000I1550000J0D01*
G01*
D11*
%TO.C,B-SolderMask_LOGO*%
G36*
X85566952Y-99126367D02*
G01*
X85807047Y-99176427D01*
X85889356Y-99236507D01*
X85913262Y-99392488D01*
X85935222Y-99762890D01*
X85954520Y-100317911D01*
X85970440Y-101027743D01*
X85982265Y-101862582D01*
X85989277Y-102792622D01*
X85990930Y-103460969D01*
X85996267Y-104792321D01*
X86010805Y-105913660D01*
X86034314Y-106817483D01*
X86066563Y-107496288D01*
X86107323Y-107942573D01*
X86132921Y-108084761D01*
X86406594Y-108707369D01*
X86862395Y-109191359D01*
X87471088Y-109520477D01*
X88203436Y-109678469D01*
X88963633Y-109658402D01*
X89747390Y-109455457D01*
X90372271Y-109077962D01*
X90824852Y-108534652D01*
X90896215Y-108401386D01*
X90972704Y-108239226D01*
X91034685Y-108077306D01*
X91084129Y-107888290D01*
X91123008Y-107644846D01*
X91153292Y-107319639D01*
X91176954Y-106885334D01*
X91195963Y-106314598D01*
X91212292Y-105580095D01*
X91227911Y-104654493D01*
X91243761Y-103581995D01*
X91266807Y-102252276D01*
X91294164Y-101161307D01*
X91325782Y-100310218D01*
X91361611Y-99700137D01*
X91401600Y-99332192D01*
X91437701Y-99211709D01*
X91630863Y-99148518D01*
X92035969Y-99114003D01*
X92622165Y-99110403D01*
X92780970Y-99114230D01*
X93991358Y-99149420D01*
X94052415Y-104241764D01*
X94071448Y-105630390D01*
X94092655Y-106786044D01*
X94116470Y-107719980D01*
X94143329Y-108443451D01*
X94173668Y-108967710D01*
X94207921Y-109304010D01*
X94246525Y-109463604D01*
X94254875Y-109475378D01*
X94423893Y-109553134D01*
X94705839Y-109511470D01*
X94839649Y-109470320D01*
X95192692Y-109388662D01*
X95426981Y-109440028D01*
X95564682Y-109653281D01*
X95627960Y-110057283D01*
X95639915Y-110512380D01*
X95619517Y-111062619D01*
X95536297Y-111431950D01*
X95357218Y-111681873D01*
X95049245Y-111873887D01*
X94864526Y-111955817D01*
X94047937Y-112197499D01*
X93306238Y-112212749D01*
X92647723Y-112002763D01*
X92080687Y-111568733D01*
X92065903Y-111553043D01*
X91605834Y-111060545D01*
X91053527Y-111482130D01*
X90281549Y-111923613D01*
X89402641Y-112174082D01*
X88465416Y-112230814D01*
X87518489Y-112091088D01*
X86610476Y-111752182D01*
X86572848Y-111732998D01*
X85992800Y-111433709D01*
X85992800Y-113800390D01*
X85990019Y-114641299D01*
X85980022Y-115271077D01*
X85960332Y-115722776D01*
X85928468Y-116029452D01*
X85881951Y-116224157D01*
X85818304Y-116339946D01*
X85800904Y-116358966D01*
X85580361Y-116457934D01*
X85195832Y-116524676D01*
X84718463Y-116558455D01*
X84219399Y-116558531D01*
X83769787Y-116524169D01*
X83440772Y-116454628D01*
X83320379Y-116384699D01*
X83291614Y-116273605D01*
X83267263Y-116008172D01*
X83247198Y-115578064D01*
X83231294Y-114972946D01*
X83219423Y-114182484D01*
X83211459Y-113196341D01*
X83207275Y-112004184D01*
X83206745Y-110595677D01*
X83209742Y-108960485D01*
X83213840Y-107683978D01*
X83245204Y-99149420D01*
X84517428Y-99114392D01*
X85147720Y-99106636D01*
X85566952Y-99126367D01*
G37*
G36*
X99366226Y-94342978D02*
G01*
X99794216Y-94392085D01*
X100008958Y-94469819D01*
X100011646Y-94472400D01*
X100064387Y-94609611D01*
X100104463Y-94914321D01*
X100132778Y-95404265D01*
X100150236Y-96097181D01*
X100157738Y-97010806D01*
X100158185Y-97349700D01*
X100158185Y-100080460D01*
X100681182Y-99704872D01*
X101576143Y-99197913D01*
X102555317Y-98881025D01*
X103572453Y-98755986D01*
X104581300Y-98824570D01*
X105535608Y-99088554D01*
X106301220Y-99489027D01*
X106926317Y-100037099D01*
X107462106Y-100759672D01*
X107865554Y-101591440D01*
X108022788Y-102101582D01*
X108076926Y-102355537D01*
X108120037Y-102641536D01*
X108153001Y-102987311D01*
X108176699Y-103420595D01*
X108192011Y-103969121D01*
X108199820Y-104660621D01*
X108201005Y-105522828D01*
X108196448Y-106583474D01*
X108190825Y-107392208D01*
X108156742Y-111849420D01*
X106902875Y-111884244D01*
X106305372Y-111893350D01*
X105912852Y-111878478D01*
X105686894Y-111835737D01*
X105589077Y-111761236D01*
X105584407Y-111750721D01*
X105567134Y-111593339D01*
X105546702Y-111220453D01*
X105524072Y-110660754D01*
X105500203Y-109942934D01*
X105476054Y-109095683D01*
X105452585Y-108147694D01*
X105432146Y-107197627D01*
X105408800Y-106047108D01*
X105388098Y-105114417D01*
X105367980Y-104373198D01*
X105346388Y-103797092D01*
X105321262Y-103359743D01*
X105290543Y-103034793D01*
X105252173Y-102795885D01*
X105204091Y-102616661D01*
X105144239Y-102470766D01*
X105070557Y-102331840D01*
X105049047Y-102293902D01*
X104635498Y-101787987D01*
X104100496Y-101459369D01*
X103483407Y-101301531D01*
X102823591Y-101307957D01*
X102160414Y-101472130D01*
X101533237Y-101787533D01*
X100981423Y-102247651D01*
X100544337Y-102845965D01*
X100438907Y-103057112D01*
X100377807Y-103215246D01*
X100328357Y-103407977D01*
X100288988Y-103662736D01*
X100258135Y-104006953D01*
X100234230Y-104468055D01*
X100215707Y-105073475D01*
X100200998Y-105850641D01*
X100188537Y-106826982D01*
X100180987Y-107572178D01*
X100165262Y-108810218D01*
X100143725Y-109842971D01*
X100116699Y-110662377D01*
X100084507Y-111260377D01*
X100047472Y-111628912D01*
X100013391Y-111754630D01*
X99828975Y-111831911D01*
X99470751Y-111884154D01*
X99007878Y-111911103D01*
X98509518Y-111912501D01*
X98044833Y-111888093D01*
X97682982Y-111837624D01*
X97496069Y-111763939D01*
X97466187Y-111614422D01*
X97439413Y-111244838D01*
X97415748Y-110679333D01*
X97395190Y-109942051D01*
X97377740Y-109057137D01*
X97363398Y-108048735D01*
X97352164Y-106940990D01*
X97344038Y-105758047D01*
X97339021Y-104524051D01*
X97337111Y-103263146D01*
X97338309Y-101999478D01*
X97342615Y-100757189D01*
X97350029Y-99560426D01*
X97360552Y-98433334D01*
X97374182Y-97400055D01*
X97390920Y-96484737D01*
X97410766Y-95711522D01*
X97433721Y-95104556D01*
X97459783Y-94687984D01*
X97488953Y-94485950D01*
X97496069Y-94472400D01*
X97704363Y-94393905D01*
X98126720Y-94343943D01*
X98734272Y-94325876D01*
X98753858Y-94325862D01*
X99366226Y-94342978D01*
G37*
%TD*%
D12*
%TO.C,D2*%
X87285000Y-110970000D03*
X89335000Y-110970000D03*
%TD*%
D13*
%TO.C,BT1*%
X86293068Y-90012188D03*
X106738136Y-74605730D03*
D14*
X96515602Y-82308959D03*
%TD*%
D15*
%TO.C,R3*%
X101820000Y-122080000D03*
X103820000Y-122080000D03*
%TD*%
D16*
%TO.C,U1*%
X100745000Y-118740000D03*
X100745000Y-117470000D03*
X100745000Y-116200000D03*
X100745000Y-114930000D03*
X105695000Y-114930000D03*
X105695000Y-116200000D03*
X105695000Y-117470000D03*
X105695000Y-118740000D03*
%TD*%
D17*
%TO.C,R4*%
X103000000Y-111780000D03*
X103000000Y-109780000D03*
%TD*%
D18*
%TO.C,SW1*%
X77090000Y-108010000D03*
X79300000Y-108010000D03*
X77090000Y-100710000D03*
X79300000Y-100710000D03*
D19*
X79950000Y-106610000D03*
X79950000Y-103610000D03*
X79950000Y-102110000D03*
%TD*%
D20*
%TO.C,D1*%
X104015000Y-100190000D03*
X101965000Y-100190000D03*
%TD*%
D21*
%TO.C,X1*%
X90910000Y-116545000D03*
X90910000Y-121595000D03*
X93450000Y-116545000D03*
X93450000Y-121595000D03*
X95990000Y-116545000D03*
X95990000Y-121595000D03*
%TD*%
D22*
%TO.C,R2*%
X89330000Y-100610000D03*
X87330000Y-100610000D03*
%TD*%
M02*
