%TF.GenerationSoftware,KiCad,Pcbnew,8.0.4*%
%TF.CreationDate,2024-09-30T12:03:32+02:00*%
%TF.ProjectId,MuHack_10th_pendant,4d754861-636b-45f3-9130-74685f70656e,rev?*%
%TF.SameCoordinates,Original*%
%TF.FileFunction,Copper,L1,Top*%
%TF.FilePolarity,Positive*%
%FSLAX46Y46*%
G04 Gerber Fmt 4.6, Leading zero omitted, Abs format (unit mm)*
G04 Created by KiCad (PCBNEW 8.0.4) date 2024-09-30 12:03:32*
%MOMM*%
%LPD*%
G01*
G04 APERTURE LIST*
%TA.AperFunction,EtchedComponent*%
%ADD10C,0.000000*%
%TD*%
G04 APERTURE END LIST*
D10*
%TA.AperFunction,EtchedComponent*%
%TO.C,F-Cu*%
G36*
X91592833Y-82578403D02*
G01*
X92043507Y-82761207D01*
X92509231Y-82845850D01*
X92558886Y-82847016D01*
X92912462Y-82895705D01*
X93109968Y-83071858D01*
X93189071Y-83420601D01*
X93195940Y-83610237D01*
X93088983Y-83740575D01*
X92807563Y-83814273D01*
X92414573Y-83832217D01*
X91972910Y-83795295D01*
X91545469Y-83704393D01*
X91235056Y-83582590D01*
X90909883Y-83383456D01*
X90664415Y-83186497D01*
X90634249Y-83153587D01*
X90549317Y-82996498D01*
X90610274Y-82833150D01*
X90792228Y-82632466D01*
X91114902Y-82309791D01*
X91592833Y-82578403D01*
G37*
%TD.AperFunction*%
%TA.AperFunction,EtchedComponent*%
G36*
X96102518Y-83788414D02*
G01*
X96605554Y-83988909D01*
X97013718Y-84018303D01*
X97058992Y-84011098D01*
X97327307Y-83986685D01*
X97453770Y-84090829D01*
X97516925Y-84325091D01*
X97584292Y-84722836D01*
X97554203Y-84937078D01*
X97383012Y-85022545D01*
X97027074Y-85033964D01*
X96952656Y-85032626D01*
X96497429Y-85001133D01*
X96078239Y-84935628D01*
X95930885Y-84897494D01*
X95562805Y-84730251D01*
X95204319Y-84497456D01*
X95198192Y-84492571D01*
X94846165Y-84210312D01*
X95186652Y-83852925D01*
X95527139Y-83495538D01*
X96102518Y-83788414D01*
G37*
%TD.AperFunction*%
%TA.AperFunction,EtchedComponent*%
G36*
X78795908Y-101429462D02*
G01*
X79136389Y-101486120D01*
X79610581Y-101569433D01*
X80070204Y-101652785D01*
X80606131Y-101750843D01*
X81043588Y-101830116D01*
X81332982Y-101881667D01*
X81425595Y-101897016D01*
X81420584Y-101996278D01*
X81387798Y-102141246D01*
X81337273Y-102272370D01*
X81239648Y-102345792D01*
X81049691Y-102364005D01*
X80722171Y-102329500D01*
X80211858Y-102244770D01*
X80045712Y-102215189D01*
X79596515Y-102137530D01*
X79343995Y-102109025D01*
X79244658Y-102134483D01*
X79255010Y-102218716D01*
X79295099Y-102298201D01*
X79357683Y-102520717D01*
X79258533Y-102643368D01*
X79082147Y-102731260D01*
X78957556Y-102687426D01*
X78824276Y-102473470D01*
X78749552Y-102320276D01*
X78604729Y-101941425D01*
X78547011Y-101626166D01*
X78583715Y-101436707D01*
X78642322Y-101408554D01*
X78795908Y-101429462D01*
G37*
%TD.AperFunction*%
%TA.AperFunction,EtchedComponent*%
G36*
X81463646Y-94912556D02*
G01*
X81653939Y-95173093D01*
X81889521Y-95544695D01*
X81949080Y-95645310D01*
X82349132Y-96242430D01*
X82727796Y-96620277D01*
X82870332Y-96711060D01*
X83166675Y-96885224D01*
X83285675Y-97024843D01*
X83270303Y-97200777D01*
X83232139Y-97307701D01*
X83160648Y-97445913D01*
X83053004Y-97477829D01*
X82852634Y-97394381D01*
X82512511Y-97192388D01*
X82179869Y-97020035D01*
X81830236Y-96927376D01*
X81367841Y-96893077D01*
X81159066Y-96890911D01*
X80643465Y-96880943D01*
X80336817Y-96842009D01*
X80204250Y-96759196D01*
X80210890Y-96617589D01*
X80262253Y-96507354D01*
X80364999Y-96379067D01*
X80536902Y-96325866D01*
X80846354Y-96335328D01*
X81074750Y-96359758D01*
X81764849Y-96440866D01*
X81429370Y-95868415D01*
X81239984Y-95461139D01*
X81167855Y-95115860D01*
X81216595Y-94883947D01*
X81355258Y-94814323D01*
X81463646Y-94912556D01*
G37*
%TD.AperFunction*%
%TA.AperFunction,EtchedComponent*%
G36*
X112713412Y-100696021D02*
G01*
X112767565Y-100818515D01*
X112797109Y-101097835D01*
X112704469Y-101222436D01*
X112260402Y-101568178D01*
X111983086Y-101810382D01*
X111889125Y-101934300D01*
X111893148Y-101943065D01*
X112028671Y-102002896D01*
X112316547Y-102106190D01*
X112491838Y-102164622D01*
X112871731Y-102326638D01*
X113052669Y-102513412D01*
X113080380Y-102608744D01*
X113066683Y-102785859D01*
X112937073Y-102857377D01*
X112660277Y-102823408D01*
X112205023Y-102684058D01*
X112003377Y-102612457D01*
X111405365Y-102448637D01*
X110839098Y-102425912D01*
X110690636Y-102439273D01*
X110318562Y-102472994D01*
X110128081Y-102454144D01*
X110058636Y-102361959D01*
X110049531Y-102219450D01*
X110086636Y-102025724D01*
X110241890Y-101921109D01*
X110542694Y-101863026D01*
X110961372Y-101736858D01*
X111463545Y-101449265D01*
X111850133Y-101168267D01*
X112246690Y-100865829D01*
X112493968Y-100697283D01*
X112635147Y-100646168D01*
X112713412Y-100696021D01*
G37*
%TD.AperFunction*%
%TA.AperFunction,EtchedComponent*%
G36*
X96591377Y-87267195D02*
G01*
X96682265Y-87314015D01*
X96745223Y-87440522D01*
X96786954Y-87687348D01*
X96814159Y-88095127D01*
X96833542Y-88704494D01*
X96834416Y-88740558D01*
X96868820Y-90173939D01*
X96558041Y-90173939D01*
X96381783Y-90137065D01*
X96200820Y-90001541D01*
X95979049Y-89730015D01*
X95680365Y-89285134D01*
X95643973Y-89228257D01*
X95040685Y-88282576D01*
X95004483Y-89248986D01*
X94959418Y-89830714D01*
X94875608Y-90175554D01*
X94751279Y-90288038D01*
X94624831Y-90217188D01*
X94591347Y-90068190D01*
X94564205Y-89727546D01*
X94546413Y-89247817D01*
X94540877Y-88749259D01*
X94540877Y-87365285D01*
X94837490Y-87365285D01*
X95010814Y-87406936D01*
X95194710Y-87556306D01*
X95423467Y-87850018D01*
X95722827Y-88310961D01*
X96311550Y-89256637D01*
X96347146Y-88241925D01*
X96370799Y-87741892D01*
X96406054Y-87441626D01*
X96464053Y-87296664D01*
X96555936Y-87262542D01*
X96591377Y-87267195D01*
G37*
%TD.AperFunction*%
%TA.AperFunction,EtchedComponent*%
G36*
X101373653Y-88237141D02*
G01*
X101556607Y-88298030D01*
X101938626Y-88461817D01*
X102097610Y-88611330D01*
X102026759Y-88735975D01*
X101874648Y-88793496D01*
X101709394Y-88919919D01*
X101534688Y-89230856D01*
X101335353Y-89753714D01*
X101323444Y-89788954D01*
X101179393Y-90265220D01*
X101110578Y-90601977D01*
X101124926Y-90758563D01*
X101133422Y-90763601D01*
X101243140Y-90902130D01*
X101235339Y-91102347D01*
X101165636Y-91188234D01*
X101004088Y-91183337D01*
X100703705Y-91110491D01*
X100555060Y-91063149D01*
X100241773Y-90913918D01*
X100063026Y-90748645D01*
X100043531Y-90610306D01*
X100208001Y-90541876D01*
X100254384Y-90540285D01*
X100389846Y-90476848D01*
X100528783Y-90263204D01*
X100690537Y-89864355D01*
X100791037Y-89569249D01*
X100948592Y-89037119D01*
X101012283Y-88693233D01*
X100978947Y-88554749D01*
X100978156Y-88554474D01*
X100903295Y-88424096D01*
X100924060Y-88309756D01*
X100991995Y-88195777D01*
X101119036Y-88171995D01*
X101373653Y-88237141D01*
G37*
%TD.AperFunction*%
%TA.AperFunction,EtchedComponent*%
G36*
X101380210Y-117921344D02*
G01*
X101487414Y-118040289D01*
X101501454Y-118199420D01*
X101467765Y-118408818D01*
X101318290Y-118492290D01*
X101090518Y-118504708D01*
X100613193Y-118600659D01*
X100251779Y-118859413D01*
X100056481Y-119237318D01*
X100036069Y-119421487D01*
X100124063Y-120037116D01*
X100390187Y-120489407D01*
X100595433Y-120659407D01*
X100810447Y-120781658D01*
X101002743Y-120809858D01*
X101270099Y-120745223D01*
X101484785Y-120670465D01*
X101912550Y-120552757D01*
X102150675Y-120574032D01*
X102168909Y-120588702D01*
X102222566Y-120781104D01*
X102077245Y-120999884D01*
X101768135Y-121202024D01*
X101615397Y-121265399D01*
X101133398Y-121400398D01*
X100743452Y-121394806D01*
X100335395Y-121244983D01*
X100288680Y-121221586D01*
X99877535Y-120889468D01*
X99579631Y-120410143D01*
X99412889Y-119853237D01*
X99395228Y-119288376D01*
X99544568Y-118785186D01*
X99627522Y-118652677D01*
X100033185Y-118269620D01*
X100561321Y-117998101D01*
X101102462Y-117894324D01*
X101104579Y-117894321D01*
X101380210Y-117921344D01*
G37*
%TD.AperFunction*%
%TA.AperFunction,EtchedComponent*%
G36*
X80480140Y-98654939D02*
G01*
X80925594Y-98792919D01*
X81357163Y-98982242D01*
X81700465Y-99190117D01*
X81881122Y-99383752D01*
X81883423Y-99389443D01*
X81978895Y-99889432D01*
X81869719Y-100295604D01*
X81584218Y-100587433D01*
X81150718Y-100744395D01*
X80597543Y-100745965D01*
X80153137Y-100643248D01*
X79707071Y-100427330D01*
X79333303Y-100115247D01*
X79091372Y-99766542D01*
X79032223Y-99522279D01*
X79045613Y-99474949D01*
X79570542Y-99474949D01*
X79682894Y-99718715D01*
X80027575Y-99947062D01*
X80107925Y-99983170D01*
X80630503Y-100183952D01*
X80990097Y-100258238D01*
X81231484Y-100207922D01*
X81397667Y-100037724D01*
X81442736Y-99794080D01*
X81255400Y-99566549D01*
X80830911Y-99350762D01*
X80542489Y-99250375D01*
X80155165Y-99137753D01*
X79924283Y-99107326D01*
X79777041Y-99157049D01*
X79696431Y-99226627D01*
X79570542Y-99474949D01*
X79045613Y-99474949D01*
X79143530Y-99128830D01*
X79436748Y-98813135D01*
X79850828Y-98628104D01*
X80095182Y-98601093D01*
X80480140Y-98654939D01*
G37*
%TD.AperFunction*%
%TA.AperFunction,EtchedComponent*%
G36*
X98520951Y-76117931D02*
G01*
X98616773Y-76142120D01*
X98927373Y-76259520D01*
X99033632Y-76398038D01*
X99025446Y-76475508D01*
X98980422Y-76641507D01*
X98880727Y-77012540D01*
X98734646Y-77557661D01*
X98550462Y-78245928D01*
X98336460Y-79046395D01*
X98100924Y-79928118D01*
X98014431Y-80252064D01*
X97741005Y-81276154D01*
X97521017Y-82087790D01*
X97343487Y-82710098D01*
X97197430Y-83166205D01*
X97071866Y-83479238D01*
X96955810Y-83672323D01*
X96838282Y-83768588D01*
X96708297Y-83791158D01*
X96554874Y-83763162D01*
X96372608Y-83709369D01*
X96150943Y-83605205D01*
X96083337Y-83507840D01*
X96124008Y-83324043D01*
X96217880Y-82947920D01*
X96355544Y-82414426D01*
X96527590Y-81758520D01*
X96724612Y-81015158D01*
X96937198Y-80219298D01*
X97155941Y-79405896D01*
X97371432Y-78609911D01*
X97574262Y-77866299D01*
X97755022Y-77210018D01*
X97904304Y-76676025D01*
X98012698Y-76299276D01*
X98070797Y-76114730D01*
X98076481Y-76102570D01*
X98230123Y-76075418D01*
X98520951Y-76117931D01*
G37*
%TD.AperFunction*%
%TA.AperFunction,EtchedComponent*%
G36*
X93987721Y-74894282D02*
G01*
X94169750Y-74936141D01*
X94495872Y-75047227D01*
X94617055Y-75175446D01*
X94611284Y-75261012D01*
X94566148Y-75425527D01*
X94466643Y-75795058D01*
X94321067Y-76338570D01*
X94137716Y-77025025D01*
X93924887Y-77823385D01*
X93690876Y-78702613D01*
X93611703Y-79000381D01*
X93372981Y-79892036D01*
X93151763Y-80706142D01*
X92956369Y-81413024D01*
X92795124Y-81983011D01*
X92676348Y-82386430D01*
X92608364Y-82593608D01*
X92598154Y-82614222D01*
X92444589Y-82633567D01*
X92153069Y-82591341D01*
X92063967Y-82570599D01*
X91755350Y-82461590D01*
X91651777Y-82327306D01*
X91660617Y-82253873D01*
X91706031Y-82088287D01*
X91805800Y-81718043D01*
X91951527Y-81174513D01*
X92134817Y-80489070D01*
X92347273Y-79693089D01*
X92580498Y-78817941D01*
X92645720Y-78572977D01*
X92882357Y-77685412D01*
X93099982Y-76871782D01*
X93290331Y-76162790D01*
X93445134Y-75589134D01*
X93556126Y-75181513D01*
X93615039Y-74970629D01*
X93621086Y-74950990D01*
X93726891Y-74873112D01*
X93987721Y-74894282D01*
G37*
%TD.AperFunction*%
%TA.AperFunction,EtchedComponent*%
G36*
X102533687Y-88625341D02*
G01*
X102658035Y-88663045D01*
X102768424Y-88735290D01*
X102822082Y-88881079D01*
X102826935Y-89156769D01*
X102791504Y-89612314D01*
X102741382Y-90082114D01*
X102687915Y-90481137D01*
X102642659Y-90723156D01*
X102642575Y-90723458D01*
X102685453Y-90765681D01*
X102874195Y-90640585D01*
X103190422Y-90361607D01*
X103358965Y-90199694D01*
X103795587Y-89795506D01*
X104103913Y-89568034D01*
X104306268Y-89501733D01*
X104348738Y-89510596D01*
X104497289Y-89602398D01*
X104525361Y-89737944D01*
X104417355Y-89941818D01*
X104157675Y-90238606D01*
X103730723Y-90652890D01*
X103473717Y-90889817D01*
X103004663Y-91310754D01*
X102676152Y-91582961D01*
X102454256Y-91728612D01*
X102305048Y-91769884D01*
X102194601Y-91728950D01*
X102192372Y-91727310D01*
X102109465Y-91645541D01*
X102062680Y-91520793D01*
X102051483Y-91308591D01*
X102075342Y-90964464D01*
X102133725Y-90443936D01*
X102173171Y-90123841D01*
X102246970Y-89556967D01*
X102314089Y-89085710D01*
X102367173Y-88758871D01*
X102398868Y-88625253D01*
X102399057Y-88625053D01*
X102533687Y-88625341D01*
G37*
%TD.AperFunction*%
%TA.AperFunction,EtchedComponent*%
G36*
X89650348Y-88689126D02*
G01*
X89695840Y-88757673D01*
X89698359Y-88977563D01*
X89492994Y-89071593D01*
X89418850Y-89074900D01*
X89174785Y-89141930D01*
X88944919Y-89269075D01*
X88762766Y-89469964D01*
X88804305Y-89638981D01*
X89049362Y-89757562D01*
X89477760Y-89807144D01*
X89530172Y-89807593D01*
X90041788Y-89878055D01*
X90362428Y-90095250D01*
X90502607Y-90467889D01*
X90511069Y-90620200D01*
X90397959Y-91027441D01*
X90089351Y-91356476D01*
X89631328Y-91564977D01*
X89442327Y-91601901D01*
X89106963Y-91621561D01*
X88934412Y-91550593D01*
X88880805Y-91459788D01*
X88813391Y-91267295D01*
X88801454Y-91217539D01*
X88908694Y-91177961D01*
X89175849Y-91122984D01*
X89274056Y-91106504D01*
X89723483Y-90974453D01*
X89955111Y-90785867D01*
X89974322Y-90583402D01*
X89786499Y-90409711D01*
X89397026Y-90307447D01*
X89171774Y-90296054D01*
X88656742Y-90215510D01*
X88321840Y-89987421D01*
X88182992Y-89632102D01*
X88256122Y-89169868D01*
X88266733Y-89141429D01*
X88446665Y-88913952D01*
X88748974Y-88735117D01*
X89099679Y-88624790D01*
X89424797Y-88602837D01*
X89650348Y-88689126D01*
G37*
%TD.AperFunction*%
%TA.AperFunction,EtchedComponent*%
G36*
X94251384Y-118844186D02*
G01*
X94428166Y-118906937D01*
X94513776Y-119052648D01*
X94539902Y-119351090D01*
X94540877Y-119481624D01*
X94568586Y-119849966D01*
X94683923Y-120069510D01*
X94935201Y-120177574D01*
X95370734Y-120211477D01*
X95487271Y-120212656D01*
X95884146Y-120214323D01*
X95884146Y-119542689D01*
X95891951Y-119158113D01*
X95933701Y-118957875D01*
X96036896Y-118882167D01*
X96192979Y-118871054D01*
X96501812Y-118871054D01*
X96467739Y-120489083D01*
X96433665Y-122107112D01*
X96090789Y-122146433D01*
X95747914Y-122185754D01*
X95831803Y-121444270D01*
X95915692Y-120702785D01*
X95167227Y-120702785D01*
X94418761Y-120702785D01*
X94418761Y-121435477D01*
X94412297Y-121841545D01*
X94376975Y-122060781D01*
X94288899Y-122150534D01*
X94124174Y-122168153D01*
X94113473Y-122168170D01*
X93956143Y-122156234D01*
X93865046Y-122085554D01*
X93822194Y-121903818D01*
X93809601Y-121558715D01*
X93809053Y-121282833D01*
X93821429Y-120682334D01*
X93852605Y-120034342D01*
X93885906Y-119593171D01*
X93932124Y-119164752D01*
X93984821Y-118929446D01*
X94068614Y-118836810D01*
X94208114Y-118836401D01*
X94251384Y-118844186D01*
G37*
%TD.AperFunction*%
%TA.AperFunction,EtchedComponent*%
G36*
X109321226Y-93919491D02*
G01*
X109680009Y-94218180D01*
X109867653Y-94495583D01*
X110011061Y-94790467D01*
X110031056Y-94952793D01*
X109935365Y-95056036D01*
X109927145Y-95061306D01*
X109681690Y-95168232D01*
X109528964Y-95072450D01*
X109448653Y-94900891D01*
X109285313Y-94611243D01*
X109151736Y-94462975D01*
X108927148Y-94348490D01*
X108793932Y-94455712D01*
X108750982Y-94786807D01*
X108778537Y-95194005D01*
X108813400Y-95632721D01*
X108787292Y-95910368D01*
X108689229Y-96104937D01*
X108642401Y-96160690D01*
X108309689Y-96362256D01*
X107899283Y-96376186D01*
X107511582Y-96211237D01*
X107252661Y-95956543D01*
X107039913Y-95624080D01*
X106920114Y-95301467D01*
X106922920Y-95108590D01*
X107067548Y-94947643D01*
X107259477Y-94990631D01*
X107445623Y-95218841D01*
X107487041Y-95307452D01*
X107690334Y-95649228D01*
X107924503Y-95822189D01*
X108144388Y-95799320D01*
X108209807Y-95739820D01*
X108284801Y-95553341D01*
X108261513Y-95247713D01*
X108208258Y-95010193D01*
X108132447Y-94629575D01*
X108149477Y-94375576D01*
X108256622Y-94159487D01*
X108559641Y-93879737D01*
X108931140Y-93803208D01*
X109321226Y-93919491D01*
G37*
%TD.AperFunction*%
%TA.AperFunction,EtchedComponent*%
G36*
X92669538Y-87658794D02*
G01*
X92830549Y-87789440D01*
X93041941Y-88056794D01*
X93329190Y-88491137D01*
X93540882Y-88831975D01*
X93836466Y-89323605D01*
X94077871Y-89742711D01*
X94239706Y-90043984D01*
X94296646Y-90180714D01*
X94214943Y-90305581D01*
X94018649Y-90298528D01*
X93780989Y-90183758D01*
X93575187Y-89985472D01*
X93540091Y-89930655D01*
X93366318Y-89685556D01*
X93167257Y-89614441D01*
X92929514Y-89643680D01*
X92622008Y-89708266D01*
X92471979Y-89796496D01*
X92398759Y-89986191D01*
X92354651Y-90198271D01*
X92234199Y-90511842D01*
X92018603Y-90637777D01*
X92002461Y-90640365D01*
X91785690Y-90612595D01*
X91738673Y-90518249D01*
X91764169Y-90338671D01*
X91828326Y-89975552D01*
X91920962Y-89484652D01*
X92013433Y-89013843D01*
X92038933Y-88891727D01*
X92587031Y-88891727D01*
X92640504Y-89133593D01*
X92765754Y-89195036D01*
X92885508Y-89085920D01*
X92906773Y-88889986D01*
X92825047Y-88679577D01*
X92696081Y-88586439D01*
X92614081Y-88691019D01*
X92587031Y-88891727D01*
X92038933Y-88891727D01*
X92137466Y-88419868D01*
X92237194Y-88025833D01*
X92328084Y-87790706D01*
X92425607Y-87673457D01*
X92533430Y-87634575D01*
X92669538Y-87658794D01*
G37*
%TD.AperFunction*%
%TA.AperFunction,EtchedComponent*%
G36*
X91561010Y-118293444D02*
G01*
X91654854Y-118417171D01*
X91671367Y-118668897D01*
X91613888Y-119085865D01*
X91507276Y-119607513D01*
X91386756Y-120247376D01*
X91357640Y-120695200D01*
X91427960Y-120988507D01*
X91605750Y-121164820D01*
X91859648Y-121253470D01*
X92136561Y-121280967D01*
X92349644Y-121203050D01*
X92521907Y-120987648D01*
X92676358Y-120602691D01*
X92836007Y-120016110D01*
X92880166Y-119831053D01*
X93011093Y-119298087D01*
X93113584Y-118963705D01*
X93206508Y-118786882D01*
X93308735Y-118726596D01*
X93386593Y-118730019D01*
X93607739Y-118787323D01*
X93676354Y-118822067D01*
X93672900Y-118954542D01*
X93622428Y-119271555D01*
X93534214Y-119719990D01*
X93459824Y-120062140D01*
X93249327Y-120829636D01*
X93003372Y-121372849D01*
X92701940Y-121711240D01*
X92325012Y-121864266D01*
X91852570Y-121851389D01*
X91660506Y-121811180D01*
X91261187Y-121684489D01*
X91017030Y-121505318D01*
X90839697Y-121202322D01*
X90804000Y-121119448D01*
X90730723Y-120905912D01*
X90703022Y-120680280D01*
X90724181Y-120383135D01*
X90797485Y-119955058D01*
X90894302Y-119485798D01*
X91021032Y-118921739D01*
X91123417Y-118558097D01*
X91217693Y-118354453D01*
X91320096Y-118270388D01*
X91386494Y-118260477D01*
X91561010Y-118293444D01*
G37*
%TD.AperFunction*%
%TA.AperFunction,EtchedComponent*%
G36*
X87446723Y-89909568D02*
G01*
X87735103Y-90173713D01*
X87861759Y-90538374D01*
X87816299Y-90859585D01*
X87789850Y-91023837D01*
X87883522Y-91159023D01*
X88141547Y-91312333D01*
X88322294Y-91399450D01*
X88711198Y-91599086D01*
X88888280Y-91747594D01*
X88872571Y-91873567D01*
X88714390Y-91988481D01*
X88492814Y-92025174D01*
X88159449Y-91923059D01*
X87943204Y-91820752D01*
X87513115Y-91642218D01*
X87245356Y-91616122D01*
X87152966Y-91736112D01*
X87248981Y-91995833D01*
X87330165Y-92119493D01*
X87504817Y-92457324D01*
X87516201Y-92717049D01*
X87367010Y-92851565D01*
X87287793Y-92860477D01*
X87155628Y-92762391D01*
X86931566Y-92496085D01*
X86648150Y-92103490D01*
X86369809Y-91677761D01*
X85816105Y-90792710D01*
X86510602Y-90792710D01*
X86627404Y-91021841D01*
X86792490Y-91182089D01*
X87000648Y-91134311D01*
X87222257Y-90949474D01*
X87298608Y-90828116D01*
X87278892Y-90601414D01*
X87183841Y-90457837D01*
X86983468Y-90338201D01*
X86740012Y-90410399D01*
X86739739Y-90410545D01*
X86523397Y-90580742D01*
X86510602Y-90792710D01*
X85816105Y-90792710D01*
X85629881Y-90495045D01*
X86147158Y-90151841D01*
X86534332Y-89945097D01*
X86910483Y-89822876D01*
X87042383Y-89808115D01*
X87446723Y-89909568D01*
G37*
%TD.AperFunction*%
%TA.AperFunction,EtchedComponent*%
G36*
X111019347Y-96338989D02*
G01*
X111030287Y-96343134D01*
X111137381Y-96516677D01*
X111148569Y-96602391D01*
X111073960Y-96756564D01*
X110875361Y-97042255D01*
X110590614Y-97413848D01*
X110257561Y-97825728D01*
X109914043Y-98232278D01*
X109597902Y-98587882D01*
X109346981Y-98846925D01*
X109199122Y-98963790D01*
X109187575Y-98966246D01*
X109077199Y-98865421D01*
X109008253Y-98711627D01*
X109027088Y-98410288D01*
X109189053Y-98178532D01*
X109353094Y-97979271D01*
X109381666Y-97807902D01*
X109284941Y-97553081D01*
X109252457Y-97484406D01*
X109099723Y-97215489D01*
X108924907Y-97109416D01*
X108625029Y-97109852D01*
X108576017Y-97114362D01*
X108231569Y-97116465D01*
X108166275Y-97082378D01*
X109723071Y-97082378D01*
X109742583Y-97253946D01*
X109871420Y-97308473D01*
X110075139Y-97172999D01*
X110235157Y-97009748D01*
X110213039Y-96936754D01*
X110111102Y-96909362D01*
X109866009Y-96937130D01*
X109723071Y-97082378D01*
X108166275Y-97082378D01*
X108056889Y-97025272D01*
X108020592Y-96958802D01*
X107981927Y-96759144D01*
X107999959Y-96701075D01*
X108148981Y-96654627D01*
X108481946Y-96594500D01*
X108939509Y-96527702D01*
X109462331Y-96461243D01*
X109991067Y-96402133D01*
X110466377Y-96357381D01*
X110828917Y-96333997D01*
X111019347Y-96338989D01*
G37*
%TD.AperFunction*%
%TA.AperFunction,EtchedComponent*%
G36*
X105194409Y-90136212D02*
G01*
X105464794Y-90267735D01*
X105794399Y-90483264D01*
X106131278Y-90724998D01*
X106378590Y-90901564D01*
X106480530Y-90973179D01*
X106484416Y-91089522D01*
X106389154Y-91266452D01*
X106263539Y-91387233D01*
X106231886Y-91395093D01*
X106060200Y-91326344D01*
X105792090Y-91155410D01*
X105712813Y-91096846D01*
X105424857Y-90912186D01*
X105243395Y-90895404D01*
X105182296Y-90938096D01*
X105054843Y-91151826D01*
X105131275Y-91369681D01*
X105409146Y-91620014D01*
X105684337Y-91889386D01*
X105751061Y-92096805D01*
X105643503Y-92208060D01*
X105395845Y-92188942D01*
X105042271Y-92005240D01*
X105031695Y-91997762D01*
X104645576Y-91722821D01*
X104427499Y-92011932D01*
X104306777Y-92191196D01*
X104304769Y-92322047D01*
X104449564Y-92473053D01*
X104691009Y-92655207D01*
X104976304Y-92887628D01*
X105079105Y-93047372D01*
X105031688Y-93179154D01*
X104919107Y-93296321D01*
X104802331Y-93326543D01*
X104626340Y-93253578D01*
X104336113Y-93061183D01*
X104126544Y-92911958D01*
X103811846Y-92662226D01*
X103605724Y-92451234D01*
X103554436Y-92339791D01*
X103638059Y-92187248D01*
X103831902Y-91887204D01*
X104102855Y-91489906D01*
X104287128Y-91227908D01*
X104592614Y-90797763D01*
X104847413Y-90437874D01*
X105016411Y-90197897D01*
X105061707Y-90132585D01*
X105194409Y-90136212D01*
G37*
%TD.AperFunction*%
%TA.AperFunction,EtchedComponent*%
G36*
X107373128Y-91726509D02*
G01*
X107615955Y-91941848D01*
X107869296Y-92246707D01*
X108082614Y-92577226D01*
X108205373Y-92869541D01*
X108217800Y-92961658D01*
X108107792Y-93337860D01*
X107825044Y-93656459D01*
X107440474Y-93843089D01*
X107363752Y-93857224D01*
X107168637Y-93920554D01*
X107049852Y-94087508D01*
X106963757Y-94424200D01*
X106953667Y-94478506D01*
X106840198Y-94881912D01*
X106686534Y-95048410D01*
X106486999Y-94982873D01*
X106428107Y-94929630D01*
X106366690Y-94743772D01*
X106401795Y-94382954D01*
X106453645Y-94136229D01*
X106531815Y-93675743D01*
X106499951Y-93431717D01*
X106355734Y-93401416D01*
X106096848Y-93582108D01*
X106033647Y-93640887D01*
X105739661Y-93884902D01*
X105527864Y-93945720D01*
X105337274Y-93838010D01*
X105312767Y-93814290D01*
X105285512Y-93707315D01*
X105374156Y-93525421D01*
X105598209Y-93241057D01*
X105932656Y-92875355D01*
X106691358Y-92875355D01*
X106972085Y-93106024D01*
X107280715Y-93264703D01*
X107530915Y-93212481D01*
X107652716Y-93040176D01*
X107628261Y-92833474D01*
X107486424Y-92591685D01*
X107255755Y-92310958D01*
X106973556Y-92593157D01*
X106691358Y-92875355D01*
X105932656Y-92875355D01*
X105977182Y-92826668D01*
X106112622Y-92684723D01*
X106504420Y-92285446D01*
X106842478Y-91957191D01*
X107086992Y-91737601D01*
X107191354Y-91664556D01*
X107373128Y-91726509D01*
G37*
%TD.AperFunction*%
%TA.AperFunction,EtchedComponent*%
G36*
X98388028Y-87523801D02*
G01*
X98519359Y-87659522D01*
X98668002Y-87934341D01*
X98858776Y-88388036D01*
X98938285Y-88591762D01*
X99364435Y-89696123D01*
X99553738Y-88744406D01*
X99656383Y-88266144D01*
X99743082Y-87984385D01*
X99834936Y-87854225D01*
X99953045Y-87830762D01*
X99981142Y-87834827D01*
X100189817Y-87881208D01*
X100247284Y-87903574D01*
X100236422Y-88026389D01*
X100185784Y-88339956D01*
X100103730Y-88795584D01*
X100008092Y-89296291D01*
X99889190Y-89886693D01*
X99796858Y-90277484D01*
X99714631Y-90509462D01*
X99626042Y-90623427D01*
X99514624Y-90660177D01*
X99456720Y-90662400D01*
X99252090Y-90606521D01*
X99079855Y-90404748D01*
X98932691Y-90102757D01*
X98794918Y-89774768D01*
X98708164Y-89555589D01*
X98692800Y-89507093D01*
X98649402Y-89383443D01*
X98540556Y-89116394D01*
X98490475Y-88998227D01*
X98288150Y-88525381D01*
X98128046Y-89370165D01*
X98017206Y-89893910D01*
X97914851Y-90207358D01*
X97802522Y-90342954D01*
X97661758Y-90333140D01*
X97599275Y-90299462D01*
X97523600Y-90219326D01*
X97493746Y-90069190D01*
X97511439Y-89802745D01*
X97578404Y-89373678D01*
X97648019Y-88991806D01*
X97765995Y-88369243D01*
X97854903Y-87947623D01*
X97930389Y-87687789D01*
X98008103Y-87550581D01*
X98103691Y-87496843D01*
X98232802Y-87487414D01*
X98249186Y-87487400D01*
X98388028Y-87523801D01*
G37*
%TD.AperFunction*%
%TA.AperFunction,EtchedComponent*%
G36*
X103828754Y-116900339D02*
G01*
X103777230Y-117179144D01*
X103662846Y-117576108D01*
X103631198Y-117671289D01*
X103488977Y-118092975D01*
X103383661Y-118411976D01*
X103334564Y-118569630D01*
X103333185Y-118576475D01*
X103431118Y-118646228D01*
X103692710Y-118807772D01*
X104069648Y-119031585D01*
X104247422Y-119135134D01*
X104654446Y-119384988D01*
X104959513Y-119599232D01*
X105116037Y-119743943D01*
X105126470Y-119775257D01*
X104995667Y-119901870D01*
X104838439Y-119979242D01*
X104608090Y-119990061D01*
X104276527Y-119868136D01*
X103892218Y-119655087D01*
X103414707Y-119380060D01*
X103119432Y-119253224D01*
X102988118Y-119283324D01*
X103002494Y-119479104D01*
X103144285Y-119849311D01*
X103203919Y-119984498D01*
X103340127Y-120339890D01*
X103350781Y-120538971D01*
X103295506Y-120606540D01*
X103067877Y-120691777D01*
X102874965Y-120604285D01*
X102682285Y-120318471D01*
X102561383Y-120061679D01*
X102224220Y-119286627D01*
X101976860Y-118704761D01*
X101809375Y-118286329D01*
X101711832Y-118001577D01*
X101674303Y-117820753D01*
X101686855Y-117714105D01*
X101739558Y-117651880D01*
X101753855Y-117642267D01*
X101978957Y-117544763D01*
X102153411Y-117607124D01*
X102320359Y-117858941D01*
X102432586Y-118107833D01*
X102676226Y-118687881D01*
X102954021Y-117862347D01*
X103188936Y-117291352D01*
X103440211Y-116944418D01*
X103723955Y-116801376D01*
X103806343Y-116795093D01*
X103828754Y-116900339D01*
G37*
%TD.AperFunction*%
%TA.AperFunction,EtchedComponent*%
G36*
X97846693Y-118647790D02*
G01*
X97859916Y-118649744D01*
X98020333Y-118748060D01*
X98243777Y-119014591D01*
X98543045Y-119467016D01*
X98930933Y-120123012D01*
X98948204Y-120153266D01*
X99252210Y-120692186D01*
X99507373Y-121155592D01*
X99691441Y-121502220D01*
X99782162Y-121690811D01*
X99787843Y-121710237D01*
X99686316Y-121778719D01*
X99482432Y-121801823D01*
X99212967Y-121723093D01*
X98972735Y-121457646D01*
X98915183Y-121364813D01*
X98712150Y-121079573D01*
X98527479Y-120982544D01*
X98400311Y-120996800D01*
X98057492Y-121056463D01*
X97885871Y-121067464D01*
X97706364Y-121121664D01*
X97589081Y-121319942D01*
X97519525Y-121588121D01*
X97425958Y-121923622D01*
X97294816Y-122086166D01*
X97075519Y-122145680D01*
X96831995Y-122136335D01*
X96792372Y-122023564D01*
X96840311Y-121840189D01*
X96926493Y-121479397D01*
X97036505Y-121002258D01*
X97104093Y-120702785D01*
X97226356Y-120160473D01*
X97837992Y-120160473D01*
X97891439Y-120389303D01*
X98097350Y-120457865D01*
X98137601Y-120458554D01*
X98333494Y-120446366D01*
X98368478Y-120365649D01*
X98260169Y-120150172D01*
X98232481Y-120101834D01*
X98043626Y-119851976D01*
X97908445Y-119834845D01*
X97842167Y-120048176D01*
X97837992Y-120160473D01*
X97226356Y-120160473D01*
X97273645Y-119950718D01*
X97402335Y-119405014D01*
X97501987Y-119033553D01*
X97584424Y-118804219D01*
X97661472Y-118684892D01*
X97744953Y-118643455D01*
X97846693Y-118647790D01*
G37*
%TD.AperFunction*%
%TA.AperFunction,EtchedComponent*%
G36*
X111924427Y-98322482D02*
G01*
X112032629Y-98410658D01*
X112106314Y-98585339D01*
X112185065Y-98848826D01*
X112199716Y-98896006D01*
X112317855Y-99330596D01*
X112341082Y-99627045D01*
X112275465Y-99869593D01*
X112270603Y-99880408D01*
X111994337Y-100227567D01*
X111602901Y-100396198D01*
X111170083Y-100354961D01*
X111161179Y-100351655D01*
X110944724Y-100293790D01*
X110772126Y-100342993D01*
X110567469Y-100534869D01*
X110430199Y-100694478D01*
X110139979Y-101014304D01*
X109952402Y-101141365D01*
X109834893Y-101086282D01*
X109767422Y-100910552D01*
X109795229Y-100656191D01*
X110008726Y-100323051D01*
X110132932Y-100178749D01*
X110421426Y-99807468D01*
X110514975Y-99558480D01*
X110417225Y-99443375D01*
X110131821Y-99473745D01*
X109932709Y-99542034D01*
X109594568Y-99664157D01*
X109416200Y-99676467D01*
X109333097Y-99565824D01*
X109297919Y-99412763D01*
X109309179Y-99344534D01*
X110981279Y-99344534D01*
X111049660Y-99517932D01*
X111244999Y-99751633D01*
X111478523Y-99797888D01*
X111671484Y-99662040D01*
X111738956Y-99471153D01*
X111717661Y-99154146D01*
X111540781Y-99025052D01*
X111230570Y-99080399D01*
X111008950Y-99192671D01*
X110981279Y-99344534D01*
X109309179Y-99344534D01*
X109318071Y-99290656D01*
X109451893Y-99169470D01*
X109736505Y-99027293D01*
X110209029Y-98842211D01*
X110354819Y-98788865D01*
X110996905Y-98554004D01*
X111446147Y-98396454D01*
X111742127Y-98318513D01*
X111924427Y-98322482D01*
G37*
%TD.AperFunction*%
%TA.AperFunction,EtchedComponent*%
G36*
X88246248Y-117088042D02*
G01*
X88386259Y-117131814D01*
X88476314Y-117209759D01*
X88527433Y-117368817D01*
X88550639Y-117655930D01*
X88556955Y-118118036D01*
X88557223Y-118412392D01*
X88557223Y-119658692D01*
X89442560Y-118787970D01*
X89857101Y-118389519D01*
X90145137Y-118142733D01*
X90347083Y-118020991D01*
X90503357Y-117997674D01*
X90602656Y-118023870D01*
X90815202Y-118163771D01*
X90877953Y-118287071D01*
X90832728Y-118477477D01*
X90712023Y-118832984D01*
X90539202Y-119295359D01*
X90337631Y-119806371D01*
X90130677Y-120307785D01*
X89941705Y-120741370D01*
X89794081Y-121048893D01*
X89724430Y-121161912D01*
X89568855Y-121254275D01*
X89371076Y-121159989D01*
X89271962Y-121066962D01*
X89240617Y-120942660D01*
X89285212Y-120733481D01*
X89413921Y-120385820D01*
X89534167Y-120090285D01*
X89910274Y-119176343D01*
X89121770Y-119956518D01*
X88669111Y-120384542D01*
X88350384Y-120617910D01*
X88140748Y-120647547D01*
X88015365Y-120464380D01*
X87949397Y-120059335D01*
X87920954Y-119517849D01*
X87885588Y-118443650D01*
X87538980Y-119328987D01*
X87358263Y-119747085D01*
X87191320Y-120058215D01*
X87068764Y-120207006D01*
X87050518Y-120212453D01*
X86859095Y-120186115D01*
X86755910Y-120091601D01*
X86743914Y-119896387D01*
X86826060Y-119567949D01*
X87005298Y-119073762D01*
X87197397Y-118593945D01*
X87424524Y-118045809D01*
X87623138Y-117582124D01*
X87773129Y-117248755D01*
X87854386Y-117091570D01*
X87857996Y-117087268D01*
X88021628Y-117055871D01*
X88246248Y-117088042D01*
G37*
%TD.AperFunction*%
%TA.AperFunction,EtchedComponent*%
G36*
X84388574Y-91690216D02*
G01*
X84708408Y-91825453D01*
X85136064Y-92018876D01*
X85616554Y-92244324D01*
X86094887Y-92475639D01*
X86516075Y-92686661D01*
X86825129Y-92851231D01*
X86962454Y-92938467D01*
X86929486Y-93050127D01*
X86805621Y-93199030D01*
X86647908Y-93329640D01*
X86494644Y-93333264D01*
X86244685Y-93208548D01*
X86214221Y-93191115D01*
X85956160Y-93057494D01*
X85786004Y-93056933D01*
X85591268Y-93205331D01*
X85499969Y-93292067D01*
X85285583Y-93527993D01*
X85228985Y-93735155D01*
X85297139Y-94037221D01*
X85299155Y-94043802D01*
X85370512Y-94358541D01*
X85328306Y-94540208D01*
X85254375Y-94614657D01*
X85094424Y-94777801D01*
X84843025Y-95074510D01*
X84553554Y-95441689D01*
X84543094Y-95455429D01*
X84278490Y-95797582D01*
X84076701Y-96047486D01*
X83977278Y-96156326D01*
X83974206Y-96157593D01*
X83872533Y-96084138D01*
X83621734Y-95884188D01*
X83259664Y-95588364D01*
X82828413Y-95230818D01*
X81717667Y-94304043D01*
X81961009Y-93979135D01*
X82213151Y-93653842D01*
X82492871Y-93307921D01*
X82508251Y-93289418D01*
X82713227Y-93061956D01*
X82845573Y-93004850D01*
X82981885Y-93095118D01*
X83022620Y-93135078D01*
X83145492Y-93285022D01*
X83132626Y-93420309D01*
X82966251Y-93623569D01*
X82903329Y-93689742D01*
X82650501Y-93996882D01*
X82588107Y-94217765D01*
X82704618Y-94403460D01*
X82736035Y-94430792D01*
X82888103Y-94475984D01*
X83089689Y-94354548D01*
X83247343Y-94201513D01*
X83570337Y-93934306D01*
X83822552Y-93841641D01*
X83966446Y-93903930D01*
X83964474Y-94101580D01*
X83779094Y-94415002D01*
X83742417Y-94459846D01*
X83509040Y-94766818D01*
X83448399Y-94963684D01*
X83556591Y-95109001D01*
X83693604Y-95191907D01*
X83885678Y-95259272D01*
X84051649Y-95190705D01*
X84272149Y-94952700D01*
X84273652Y-94950871D01*
X84507960Y-94708412D01*
X84703226Y-94576876D01*
X84741117Y-94568992D01*
X84819214Y-94570600D01*
X84863391Y-94548984D01*
X84864644Y-94466471D01*
X84813971Y-94285391D01*
X84702368Y-93968074D01*
X84520832Y-93476846D01*
X84406596Y-93169258D01*
X84183122Y-92547387D01*
X84168859Y-92500984D01*
X84720621Y-92500984D01*
X84797497Y-92685276D01*
X84961146Y-92905422D01*
X85126877Y-92923802D01*
X85225109Y-92782301D01*
X85158662Y-92647804D01*
X84962791Y-92519982D01*
X84752038Y-92436988D01*
X84720621Y-92500984D01*
X84168859Y-92500984D01*
X84050888Y-92117167D01*
X84006083Y-91845277D01*
X84044894Y-91698394D01*
X84163509Y-91643196D01*
X84231552Y-91639323D01*
X84388574Y-91690216D01*
G37*
%TD.AperFunction*%
%TA.AperFunction,EtchedComponent*%
G36*
X97219046Y-91258257D02*
G01*
X97300747Y-91268273D01*
X99115206Y-91605597D01*
X100801064Y-92147864D01*
X102372289Y-92901718D01*
X103842849Y-93873802D01*
X105160389Y-95006457D01*
X106398836Y-96366439D01*
X107433696Y-97860418D01*
X108260846Y-99481460D01*
X108876165Y-101222628D01*
X108895216Y-101290714D01*
X109102875Y-102264534D01*
X109240950Y-103388595D01*
X109305936Y-104578019D01*
X109294331Y-105747927D01*
X109202633Y-106813441D01*
X109139463Y-107209035D01*
X109011534Y-107811300D01*
X108851589Y-108445985D01*
X108675874Y-109060017D01*
X108500638Y-109600321D01*
X108342131Y-110013826D01*
X108216601Y-110247457D01*
X108205401Y-110259999D01*
X108169311Y-110179385D01*
X108140183Y-109862152D01*
X108118246Y-109315817D01*
X108103725Y-108547900D01*
X108096847Y-107565919D01*
X108096930Y-106657596D01*
X108097055Y-105473317D01*
X108088482Y-104502299D01*
X108067871Y-103713634D01*
X108031882Y-103076409D01*
X107977175Y-102559715D01*
X107900409Y-102132641D01*
X107798246Y-101764277D01*
X107667344Y-101423714D01*
X107504364Y-101080039D01*
X107491526Y-101054790D01*
X106949297Y-100234256D01*
X106260669Y-99608568D01*
X105428655Y-99179373D01*
X104456270Y-98948320D01*
X103566925Y-98907570D01*
X102494751Y-99023529D01*
X101578919Y-99313876D01*
X100797501Y-99786062D01*
X100667485Y-99892604D01*
X100386136Y-100124570D01*
X100194247Y-100265961D01*
X100141889Y-100288502D01*
X100134231Y-100160401D01*
X100121537Y-99822486D01*
X100104888Y-99309094D01*
X100085365Y-98654567D01*
X100064048Y-97893243D01*
X100050303Y-97378746D01*
X99975011Y-94509035D01*
X98753858Y-94509035D01*
X97532704Y-94509035D01*
X97532704Y-103118170D01*
X97532704Y-111727304D01*
X98725455Y-111762281D01*
X99319589Y-111770378D01*
X99703865Y-111750858D01*
X99911438Y-111700470D01*
X99971202Y-111640165D01*
X99985400Y-111483785D01*
X100000990Y-111113392D01*
X100017249Y-110559196D01*
X100033453Y-109851405D01*
X100048878Y-109020229D01*
X100062800Y-108095877D01*
X100070070Y-107514323D01*
X100083421Y-106419636D01*
X100096784Y-105540412D01*
X100112152Y-104847893D01*
X100131518Y-104313321D01*
X100156874Y-103907936D01*
X100190213Y-103602980D01*
X100233528Y-103369694D01*
X100288811Y-103179319D01*
X100358055Y-103003096D01*
X100387259Y-102936518D01*
X100723542Y-102314432D01*
X101122266Y-101865862D01*
X101647048Y-101520095D01*
X101674244Y-101506026D01*
X102159194Y-101339501D01*
X102777721Y-101239059D01*
X103425989Y-101213468D01*
X104000162Y-101271497D01*
X104118270Y-101299630D01*
X104580401Y-101540521D01*
X104992235Y-101961730D01*
X105298377Y-102499396D01*
X105386828Y-102762053D01*
X105428388Y-103035103D01*
X105470152Y-103528295D01*
X105510928Y-104217545D01*
X105549525Y-105078768D01*
X105584749Y-106087881D01*
X105615408Y-107220799D01*
X105622084Y-107514323D01*
X105714435Y-111727304D01*
X106386069Y-111761177D01*
X106886501Y-111793857D01*
X107165046Y-111856103D01*
X107243827Y-111987843D01*
X107144969Y-112229002D01*
X106890595Y-112619509D01*
X106874673Y-112642961D01*
X105806882Y-114002348D01*
X104570633Y-115198136D01*
X103187186Y-116220525D01*
X101677805Y-117059716D01*
X100063751Y-117705910D01*
X98366286Y-118149307D01*
X96606671Y-118380109D01*
X94806170Y-118388516D01*
X94460943Y-118364141D01*
X92708097Y-118097656D01*
X91007682Y-117595168D01*
X89370610Y-116861350D01*
X87807790Y-115900876D01*
X86694963Y-115037986D01*
X85870685Y-114337490D01*
X85870685Y-112839048D01*
X85876990Y-112256975D01*
X85894180Y-111766480D01*
X85919663Y-111417681D01*
X85950849Y-111260696D01*
X85952361Y-111258929D01*
X86092631Y-111266110D01*
X86247031Y-111370008D01*
X86713883Y-111670645D01*
X87341132Y-111905028D01*
X88048612Y-112049064D01*
X88619597Y-112083039D01*
X89438536Y-112022730D01*
X90122157Y-111845563D01*
X90762861Y-111522966D01*
X91049218Y-111331682D01*
X91648426Y-110906432D01*
X92026142Y-111337029D01*
X92324137Y-111635534D01*
X92618478Y-111867776D01*
X92703186Y-111917555D01*
X93182864Y-112049862D01*
X93778471Y-112058783D01*
X94398791Y-111950313D01*
X94867379Y-111775278D01*
X95456742Y-111483073D01*
X95488147Y-110628266D01*
X95492961Y-110065229D01*
X95445918Y-109712631D01*
X95329595Y-109539120D01*
X95126567Y-109513342D01*
X94902114Y-109573767D01*
X94515695Y-109686185D01*
X94282474Y-109668553D01*
X94135314Y-109496176D01*
X94043489Y-109257949D01*
X93999609Y-109052280D01*
X93967392Y-108723310D01*
X93946448Y-108250040D01*
X93936392Y-107611472D01*
X93936834Y-106786608D01*
X93947387Y-105754448D01*
X93961710Y-104831266D01*
X93976462Y-103826783D01*
X93985937Y-102863207D01*
X93990122Y-101977677D01*
X93989005Y-101207334D01*
X93982572Y-100589318D01*
X93970810Y-100160770D01*
X93963388Y-100034756D01*
X93896862Y-99210477D01*
X92692427Y-99210477D01*
X92181644Y-99213360D01*
X91775237Y-99221125D01*
X91526097Y-99232447D01*
X91473577Y-99241006D01*
X91468123Y-99365769D01*
X91459029Y-99707036D01*
X91446881Y-100237113D01*
X91432267Y-100928310D01*
X91415774Y-101752936D01*
X91397989Y-102683299D01*
X91381029Y-103606631D01*
X91358937Y-104802462D01*
X91337287Y-105780702D01*
X91311996Y-106567951D01*
X91278983Y-107190807D01*
X91234166Y-107675868D01*
X91173463Y-108049734D01*
X91092792Y-108339002D01*
X90988071Y-108570272D01*
X90855218Y-108770141D01*
X90690151Y-108965209D01*
X90532589Y-109135223D01*
X90073054Y-109469270D01*
X89454571Y-109698678D01*
X88744406Y-109810866D01*
X88009830Y-109793252D01*
X87521995Y-109698310D01*
X87007908Y-109450530D01*
X86527703Y-109038961D01*
X86158046Y-108540270D01*
X86006890Y-108183205D01*
X85965308Y-107901840D01*
X85930633Y-107390699D01*
X85903308Y-106664149D01*
X85883775Y-105736559D01*
X85872477Y-104622297D01*
X85869698Y-103728746D01*
X85866917Y-102756642D01*
X85860129Y-101853870D01*
X85849896Y-101051817D01*
X85836779Y-100381865D01*
X85821340Y-99875400D01*
X85804142Y-99563807D01*
X85793717Y-99485237D01*
X85744171Y-99356562D01*
X85646568Y-99275896D01*
X85451722Y-99232092D01*
X85110447Y-99214002D01*
X84581437Y-99210477D01*
X84013909Y-99224525D01*
X83600809Y-99263815D01*
X83381526Y-99324064D01*
X83360780Y-99343173D01*
X83341859Y-99489615D01*
X83320939Y-99854706D01*
X83298770Y-100412879D01*
X83276098Y-101138566D01*
X83253673Y-102006201D01*
X83232241Y-102990217D01*
X83212550Y-104065047D01*
X83200929Y-104807836D01*
X83123088Y-110139804D01*
X82783282Y-109101823D01*
X82338941Y-107360158D01*
X82125669Y-105578103D01*
X82142127Y-103785358D01*
X82386974Y-102011621D01*
X82858871Y-100286590D01*
X83223140Y-99349848D01*
X84028593Y-97787867D01*
X85022086Y-96361026D01*
X86182616Y-95081382D01*
X87489178Y-93960995D01*
X88920769Y-93011920D01*
X90456387Y-92246216D01*
X92075027Y-91675941D01*
X93755685Y-91313150D01*
X95477360Y-91169903D01*
X97219046Y-91258257D01*
G37*
%TD.AperFunction*%
%TA.AperFunction,EtchedComponent*%
G36*
X96972511Y-63398612D02*
G01*
X97215941Y-63644679D01*
X97547160Y-64010597D01*
X97934697Y-64460209D01*
X98347081Y-64957355D01*
X98752840Y-65465877D01*
X98958450Y-65732920D01*
X99623645Y-66674134D01*
X100287841Y-67729643D01*
X100901365Y-68814414D01*
X101414544Y-69843414D01*
X101582438Y-70224744D01*
X102050973Y-71340454D01*
X102478377Y-71281400D01*
X103593445Y-71067992D01*
X104869761Y-70718449D01*
X106274247Y-70244578D01*
X107773825Y-69658183D01*
X109335418Y-68971072D01*
X110443902Y-68438388D01*
X111081983Y-68124220D01*
X111647278Y-67851945D01*
X112102536Y-67639018D01*
X112410502Y-67502894D01*
X112530948Y-67460477D01*
X112574654Y-67575253D01*
X112596345Y-67892575D01*
X112597942Y-68371934D01*
X112581368Y-68972822D01*
X112548543Y-69654728D01*
X112501390Y-70377145D01*
X112441830Y-71099564D01*
X112371786Y-71781476D01*
X112299451Y-72340178D01*
X111869788Y-74525366D01*
X111233016Y-76697363D01*
X110409118Y-78800672D01*
X109418076Y-80779794D01*
X109011265Y-81472359D01*
X108693443Y-81990491D01*
X108991103Y-82288151D01*
X109281272Y-82504569D01*
X109696258Y-82678282D01*
X110283107Y-82826301D01*
X110686627Y-82901299D01*
X110980476Y-82967128D01*
X111091863Y-83075589D01*
X111080582Y-83300306D01*
X111067923Y-83370787D01*
X110875836Y-84019837D01*
X110558630Y-84489861D01*
X110119915Y-84809264D01*
X109595390Y-85087524D01*
X110053182Y-85524241D01*
X110493376Y-86107588D01*
X110732779Y-86827559D01*
X110781542Y-87408879D01*
X110765722Y-87709061D01*
X110698035Y-87817801D01*
X110568521Y-87794430D01*
X110200365Y-87703266D01*
X109714244Y-87652269D01*
X109212444Y-87645220D01*
X108797250Y-87685901D01*
X108657956Y-87723801D01*
X108304362Y-87861219D01*
X108552085Y-88132242D01*
X108946493Y-88671409D01*
X109164391Y-89263585D01*
X109231412Y-89983015D01*
X109230248Y-90096475D01*
X109213289Y-90934877D01*
X109666582Y-90862392D01*
X110262627Y-90846369D01*
X110816891Y-91012693D01*
X111373437Y-91379953D01*
X111772684Y-91750895D01*
X112284116Y-92363245D01*
X112662153Y-93002159D01*
X112893101Y-93626638D01*
X112963266Y-94195679D01*
X112858953Y-94668282D01*
X112787890Y-94790453D01*
X112708632Y-94926384D01*
X112685481Y-95072148D01*
X112731122Y-95276222D01*
X112858241Y-95587079D01*
X113079522Y-96053194D01*
X113163117Y-96224328D01*
X113976975Y-98148947D01*
X114593326Y-100177844D01*
X114996352Y-102252223D01*
X115132975Y-103546950D01*
X115216072Y-104729101D01*
X115899388Y-104646986D01*
X117017513Y-104456434D01*
X117960596Y-104163116D01*
X118784738Y-103743142D01*
X119546041Y-103172623D01*
X119711663Y-103023611D01*
X120091732Y-102685465D01*
X120338745Y-102505311D01*
X120486546Y-102462831D01*
X120557165Y-102516021D01*
X120657925Y-102767617D01*
X120764485Y-103165633D01*
X120855743Y-103613742D01*
X120910597Y-104015621D01*
X120917800Y-104162161D01*
X120925391Y-104295658D01*
X120977265Y-104382046D01*
X121117072Y-104431578D01*
X121388463Y-104454505D01*
X121835088Y-104461079D01*
X122192082Y-104461439D01*
X123466363Y-104461439D01*
X123407172Y-105591006D01*
X123317713Y-107134289D01*
X123220119Y-108460686D01*
X123109478Y-109597523D01*
X122980878Y-110572123D01*
X122829405Y-111411810D01*
X122650146Y-112143909D01*
X122438188Y-112795745D01*
X122188619Y-113394641D01*
X121903158Y-113955910D01*
X121715193Y-114311689D01*
X121643554Y-114505553D01*
X121678307Y-114584648D01*
X121768082Y-114597016D01*
X121995837Y-114643196D01*
X122332361Y-114760796D01*
X122707155Y-114918405D01*
X123049719Y-115084614D01*
X123289552Y-115228012D01*
X123360108Y-115306319D01*
X123260218Y-115405895D01*
X122992002Y-115589403D01*
X122602638Y-115825859D01*
X122352656Y-115967967D01*
X120890046Y-116744077D01*
X119554711Y-117365866D01*
X118295855Y-117846169D01*
X117062681Y-118197817D01*
X115804395Y-118433642D01*
X114470200Y-118566476D01*
X113009301Y-118609153D01*
X111956487Y-118594315D01*
X109650464Y-118530554D01*
X108598314Y-119441888D01*
X106855197Y-120795111D01*
X105002373Y-121935482D01*
X103054779Y-122858056D01*
X101027356Y-123557885D01*
X98935042Y-124030025D01*
X96792775Y-124269527D01*
X94615495Y-124271446D01*
X94113473Y-124237931D01*
X92240888Y-124001522D01*
X90452826Y-123588126D01*
X88687418Y-122980477D01*
X87152896Y-122295643D01*
X85240730Y-121226396D01*
X83487744Y-119972652D01*
X81898815Y-118539229D01*
X80478824Y-116930944D01*
X79232648Y-115152616D01*
X78370145Y-113622575D01*
X77502242Y-111654240D01*
X76863650Y-109620190D01*
X76454717Y-107539699D01*
X76275786Y-105432044D01*
X76288989Y-104888843D01*
X77389482Y-104888843D01*
X77395827Y-105800626D01*
X77412601Y-106520714D01*
X77443731Y-107101556D01*
X77493147Y-107595601D01*
X77564777Y-108055296D01*
X77662420Y-108532506D01*
X78246009Y-110638392D01*
X79031005Y-112607497D01*
X80020340Y-114445361D01*
X81216944Y-116157525D01*
X82434845Y-117555394D01*
X84001968Y-119024269D01*
X85676586Y-120275388D01*
X87464652Y-121311855D01*
X89372115Y-122136773D01*
X91404928Y-122753248D01*
X93033779Y-123083688D01*
X93862402Y-123176999D01*
X94856617Y-123223085D01*
X95942795Y-123223940D01*
X97047309Y-123181559D01*
X98096531Y-123097936D01*
X99016833Y-122975066D01*
X99344948Y-122912717D01*
X101391672Y-122358400D01*
X103334504Y-121593371D01*
X105160280Y-120630745D01*
X106855837Y-119483636D01*
X108408013Y-118165161D01*
X109022579Y-117514885D01*
X110549778Y-117514885D01*
X111123933Y-117569146D01*
X111641593Y-117594930D01*
X112333499Y-117597209D01*
X113131107Y-117578963D01*
X113965871Y-117543169D01*
X114769248Y-117492808D01*
X115472693Y-117430856D01*
X116007660Y-117360295D01*
X116033185Y-117355802D01*
X117049893Y-117121550D01*
X118157373Y-116778998D01*
X119249516Y-116364374D01*
X120149524Y-115950411D01*
X121100973Y-115464032D01*
X120467074Y-115457928D01*
X120096128Y-115435881D01*
X119836999Y-115386086D01*
X119768472Y-115347131D01*
X119807670Y-115208417D01*
X119969360Y-114933466D01*
X120221463Y-114575130D01*
X120298078Y-114474547D01*
X120892388Y-113706654D01*
X120652429Y-112839094D01*
X120165748Y-111528978D01*
X119465974Y-110313064D01*
X118574379Y-109216839D01*
X117512235Y-108265788D01*
X116300813Y-107485397D01*
X116094242Y-107377917D01*
X115117319Y-106885542D01*
X114956051Y-107841039D01*
X114469738Y-110029233D01*
X113767963Y-112103400D01*
X112848916Y-114067843D01*
X111710785Y-115926866D01*
X111327237Y-116463463D01*
X110549778Y-117514885D01*
X109022579Y-117514885D01*
X109803644Y-116688435D01*
X111029568Y-115066572D01*
X112072621Y-113312688D01*
X112919641Y-111439898D01*
X113557464Y-109461318D01*
X113773409Y-108536636D01*
X113987420Y-107139214D01*
X114072290Y-105891659D01*
X115209240Y-105891659D01*
X115318608Y-105918240D01*
X115582046Y-105988945D01*
X115995623Y-106167294D01*
X116506908Y-106424501D01*
X117063469Y-106731779D01*
X117612875Y-107060341D01*
X118102693Y-107381401D01*
X118437776Y-107630763D01*
X119281491Y-108431515D01*
X120080550Y-109405891D01*
X120780331Y-110483490D01*
X121065125Y-111017136D01*
X121300568Y-111484170D01*
X121469144Y-111764734D01*
X121592106Y-111848757D01*
X121690707Y-111726170D01*
X121786199Y-111386904D01*
X121899836Y-110820888D01*
X121941276Y-110602009D01*
X122031565Y-110030987D01*
X122115542Y-109338025D01*
X122179021Y-108645289D01*
X122193493Y-108430189D01*
X122233634Y-107775624D01*
X122277840Y-107088270D01*
X122318520Y-106485193D01*
X122330935Y-106309955D01*
X122395860Y-105410875D01*
X120618849Y-105456824D01*
X119991794Y-105467672D01*
X119461793Y-105466609D01*
X119071661Y-105454529D01*
X118864214Y-105432325D01*
X118841838Y-105419771D01*
X118929612Y-105302926D01*
X119154060Y-105095106D01*
X119330300Y-104949900D01*
X119667808Y-104660150D01*
X119799078Y-104497075D01*
X119730788Y-104467700D01*
X119469614Y-104579052D01*
X119149792Y-104759974D01*
X118657764Y-105001837D01*
X118018351Y-105241420D01*
X117318888Y-105452844D01*
X116646714Y-105610230D01*
X116089162Y-105687701D01*
X116007075Y-105691175D01*
X115728788Y-105717411D01*
X115464923Y-105772147D01*
X115272675Y-105836517D01*
X115209240Y-105891659D01*
X114072290Y-105891659D01*
X114091410Y-105610606D01*
X114086014Y-104035964D01*
X113971866Y-102500443D01*
X113749604Y-101089194D01*
X113716712Y-100936793D01*
X113496576Y-100069190D01*
X113221444Y-99173147D01*
X112907070Y-98285043D01*
X112569207Y-97441256D01*
X112223611Y-96678167D01*
X111886034Y-96032153D01*
X111572230Y-95539594D01*
X111297955Y-95236869D01*
X111227933Y-95189712D01*
X110546855Y-94766358D01*
X110058590Y-94342919D01*
X109715771Y-93875004D01*
X109614330Y-93677478D01*
X109448563Y-93266587D01*
X109340958Y-92894690D01*
X109318031Y-92724663D01*
X109266027Y-92524131D01*
X109095289Y-92262612D01*
X108841880Y-91977213D01*
X110296771Y-91977213D01*
X110304985Y-92194862D01*
X110334224Y-92420955D01*
X110500346Y-93108789D01*
X110796465Y-93617111D01*
X111174540Y-93942581D01*
X111566148Y-94153025D01*
X111800349Y-94180612D01*
X111881162Y-94025761D01*
X111881261Y-94016651D01*
X111794699Y-93636148D01*
X111567352Y-93172752D01*
X111247734Y-92697893D01*
X110884353Y-92283003D01*
X110525724Y-91999512D01*
X110502697Y-91986780D01*
X110356431Y-91923944D01*
X110296771Y-91977213D01*
X108841880Y-91977213D01*
X108781701Y-91909437D01*
X108309386Y-91441811D01*
X106725718Y-90093276D01*
X105008812Y-88946675D01*
X103169914Y-88007035D01*
X101220272Y-87279380D01*
X99171131Y-86768737D01*
X97247751Y-86498548D01*
X95180312Y-86431203D01*
X93125965Y-86605073D01*
X91101377Y-87017168D01*
X89123217Y-87664497D01*
X87968978Y-88162937D01*
X87096453Y-88587922D01*
X86421170Y-88949435D01*
X85911623Y-89269576D01*
X85536305Y-89570444D01*
X85263710Y-89874139D01*
X85063159Y-90201122D01*
X84665799Y-90842232D01*
X84168995Y-91427549D01*
X83617670Y-91919496D01*
X83056751Y-92280494D01*
X82531160Y-92472967D01*
X82321312Y-92494587D01*
X82048244Y-92602452D01*
X81697730Y-92905976D01*
X81287982Y-93376098D01*
X80837215Y-93983759D01*
X80363639Y-94699898D01*
X79885469Y-95495457D01*
X79420917Y-96341375D01*
X78988196Y-97208592D01*
X78605518Y-98068048D01*
X78291095Y-98890685D01*
X78265308Y-98966246D01*
X77954291Y-99950289D01*
X77722244Y-100849130D01*
X77559455Y-101728442D01*
X77456213Y-102653897D01*
X77402807Y-103691169D01*
X77389482Y-104888843D01*
X76288989Y-104888843D01*
X76327206Y-103316499D01*
X76609320Y-101212339D01*
X77122475Y-99138840D01*
X77867018Y-97115275D01*
X78065941Y-96669956D01*
X78501791Y-95782973D01*
X78979064Y-94933708D01*
X79530888Y-94070417D01*
X80190387Y-93141353D01*
X80990690Y-92094772D01*
X81013359Y-92065928D01*
X81149502Y-91816441D01*
X81141585Y-91527797D01*
X81105024Y-91384071D01*
X81099112Y-91219082D01*
X82130501Y-91219082D01*
X82237403Y-91364449D01*
X82508097Y-91344715D01*
X82793335Y-91222822D01*
X83251521Y-90888894D01*
X83711191Y-90387798D01*
X84026047Y-89929708D01*
X84218802Y-89578296D01*
X84261457Y-89392295D01*
X84149666Y-89341145D01*
X83947367Y-89376469D01*
X83300472Y-89657683D01*
X82718775Y-90145869D01*
X82439251Y-90496964D01*
X82195185Y-90924594D01*
X82130501Y-91219082D01*
X81099112Y-91219082D01*
X81088129Y-90912539D01*
X81261954Y-90381656D01*
X81595351Y-89834171D01*
X82057175Y-89312836D01*
X82616279Y-88860398D01*
X83169199Y-88550878D01*
X83707145Y-88376271D01*
X84338532Y-88310432D01*
X84569743Y-88309326D01*
X85149773Y-88288107D01*
X85566490Y-88198018D01*
X85791928Y-88092239D01*
X86178037Y-87864430D01*
X86096052Y-86790578D01*
X86056813Y-86242614D01*
X86024916Y-85734422D01*
X86005812Y-85354856D01*
X86003433Y-85281095D01*
X85984159Y-85035355D01*
X85903963Y-84881217D01*
X85706682Y-84767193D01*
X85336151Y-84641795D01*
X85290636Y-84627649D01*
X84379908Y-84293060D01*
X83375041Y-83835451D01*
X82361837Y-83296941D01*
X81488091Y-82760978D01*
X80848767Y-82293996D01*
X80150645Y-81711727D01*
X79449005Y-81066747D01*
X78799128Y-80411628D01*
X78256295Y-79798944D01*
X77952251Y-79398288D01*
X77591789Y-78966245D01*
X77259420Y-78760691D01*
X77225865Y-78752581D01*
X76724846Y-78583741D01*
X78646972Y-78583741D01*
X79318077Y-79402638D01*
X80448557Y-80597521D01*
X81764457Y-81663675D01*
X83233266Y-82582621D01*
X84822474Y-83335880D01*
X86499570Y-83904973D01*
X87740179Y-84189746D01*
X88191746Y-84285759D01*
X88436828Y-84375690D01*
X88512178Y-84475478D01*
X88503400Y-84520753D01*
X88449884Y-84778996D01*
X88435108Y-85010835D01*
X88423465Y-85185714D01*
X88349439Y-85270077D01*
X88154380Y-85283587D01*
X87779641Y-85245907D01*
X87745808Y-85241936D01*
X87056509Y-85160922D01*
X87124332Y-86150441D01*
X87163202Y-86617414D01*
X87206502Y-86983055D01*
X87246430Y-87185018D01*
X87256140Y-87203945D01*
X87388286Y-87186955D01*
X87695803Y-87091093D01*
X88129276Y-86932992D01*
X88518722Y-86778929D01*
X90298158Y-86154431D01*
X92109774Y-85726719D01*
X93997283Y-85488410D01*
X96004400Y-85432122D01*
X96433665Y-85442364D01*
X98612063Y-85625465D01*
X100697871Y-86033501D01*
X102698953Y-86668791D01*
X104623170Y-87533653D01*
X105821221Y-88210711D01*
X106330076Y-88491538D01*
X106697856Y-88619055D01*
X106905266Y-88622123D01*
X107233377Y-88624221D01*
X107443700Y-88692685D01*
X107649202Y-88802819D01*
X107691801Y-88779444D01*
X107578448Y-88596392D01*
X107499123Y-88484007D01*
X107272921Y-88197311D01*
X107068217Y-87984632D01*
X107063404Y-87980593D01*
X106906860Y-87804719D01*
X106874531Y-87719923D01*
X106979296Y-87559285D01*
X107254866Y-87345762D01*
X107643153Y-87111655D01*
X108086068Y-86889267D01*
X108525525Y-86710898D01*
X108857830Y-86617055D01*
X109209739Y-86538290D01*
X109402525Y-86455800D01*
X109424673Y-86347896D01*
X109264669Y-86192892D01*
X108910995Y-85969099D01*
X108352137Y-85654829D01*
X108344761Y-85650763D01*
X107914615Y-85404726D01*
X107580256Y-85196400D01*
X107389536Y-85056458D01*
X107362992Y-85021479D01*
X107467308Y-84898613D01*
X107741534Y-84718909D01*
X108127587Y-84513096D01*
X108567384Y-84311900D01*
X109002842Y-84146050D01*
X109042079Y-84133183D01*
X109417928Y-83987125D01*
X109640688Y-83851054D01*
X109685799Y-83748355D01*
X109528699Y-83702412D01*
X109495147Y-83701823D01*
X109198850Y-83628313D01*
X108809715Y-83440830D01*
X108416290Y-83188946D01*
X108112070Y-82927561D01*
X107869070Y-82518850D01*
X107762560Y-82080286D01*
X107746835Y-81816624D01*
X107780038Y-81575153D01*
X107883350Y-81298436D01*
X108077955Y-80929037D01*
X108368803Y-80436426D01*
X109369066Y-78552691D01*
X110192413Y-76524729D01*
X110828233Y-74387175D01*
X111265912Y-72174665D01*
X111470588Y-70313529D01*
X111504255Y-69764029D01*
X111509785Y-69419244D01*
X111484125Y-69240954D01*
X111424220Y-69190934D01*
X111381739Y-69201543D01*
X111215223Y-69276188D01*
X110870165Y-69433934D01*
X110389542Y-69655033D01*
X109816332Y-69919737D01*
X109500011Y-70066175D01*
X107626179Y-70876821D01*
X105863175Y-71517751D01*
X104164159Y-72005767D01*
X103943761Y-72059278D01*
X103357990Y-72185851D01*
X102780464Y-72279689D01*
X102147919Y-72347601D01*
X101397091Y-72396396D01*
X100475330Y-72432550D01*
X98289110Y-72501084D01*
X98367172Y-72209387D01*
X98430876Y-71872943D01*
X98446764Y-71673458D01*
X98461899Y-71565049D01*
X98534538Y-71496799D01*
X98707996Y-71461862D01*
X99025586Y-71453393D01*
X99530620Y-71464549D01*
X99729037Y-71470825D01*
X101009780Y-71512424D01*
X100814016Y-71043422D01*
X100436360Y-70213723D01*
X99964304Y-69289556D01*
X99451151Y-68370953D01*
X98985751Y-67612396D01*
X98646833Y-67105579D01*
X98289221Y-66595824D01*
X97942957Y-66123051D01*
X97638080Y-65727179D01*
X97404631Y-65448128D01*
X97272649Y-65325819D01*
X97263289Y-65323458D01*
X97198129Y-65429354D01*
X97069544Y-65713241D01*
X96899827Y-66124415D01*
X96804978Y-66365852D01*
X96054876Y-68094498D01*
X95203455Y-69640694D01*
X94218271Y-71056312D01*
X93066878Y-72393220D01*
X92973358Y-72491303D01*
X91780249Y-73646967D01*
X90602587Y-74600143D01*
X89391773Y-75384026D01*
X88099210Y-76031814D01*
X87336069Y-76342030D01*
X86564538Y-76610353D01*
X85815353Y-76816686D01*
X85034564Y-76969735D01*
X84168222Y-77078205D01*
X83162377Y-77150799D01*
X82057884Y-77193650D01*
X81231341Y-77218162D01*
X80616453Y-77241789D01*
X80180692Y-77268487D01*
X79891529Y-77302210D01*
X79716436Y-77346913D01*
X79622885Y-77406552D01*
X79578348Y-77485080D01*
X79574885Y-77495545D01*
X79446614Y-77719027D01*
X79207175Y-78015892D01*
X79073666Y-78157047D01*
X78646972Y-78583741D01*
X76724846Y-78583741D01*
X76541551Y-78521972D01*
X76048643Y-78141345D01*
X75742199Y-77604534D01*
X75650087Y-77089008D01*
X76711476Y-77089008D01*
X76792168Y-77425094D01*
X76900522Y-77553986D01*
X77267298Y-77694110D01*
X77716877Y-77695532D01*
X78093857Y-77576107D01*
X78488964Y-77263450D01*
X78655036Y-76881767D01*
X78589962Y-76452328D01*
X78291632Y-75996404D01*
X78254583Y-75956191D01*
X77925584Y-75649964D01*
X77666719Y-75544442D01*
X77415616Y-75635170D01*
X77148327Y-75877157D01*
X76900537Y-76240729D01*
X76751260Y-76669450D01*
X76711476Y-77089008D01*
X75650087Y-77089008D01*
X75617276Y-76905373D01*
X75613638Y-76741246D01*
X75690038Y-76091064D01*
X75938839Y-75555394D01*
X76390307Y-75078379D01*
X76604196Y-74913209D01*
X77196878Y-74609547D01*
X77790982Y-74545322D01*
X78369646Y-74716425D01*
X78916010Y-75118745D01*
X79293622Y-75568587D01*
X79672756Y-76106469D01*
X80848403Y-76189867D01*
X82195182Y-76210030D01*
X83628651Y-76097911D01*
X85067813Y-75866242D01*
X86431670Y-75527755D01*
X87537102Y-75138450D01*
X88697391Y-74559437D01*
X89889387Y-73787761D01*
X91065808Y-72861863D01*
X92179369Y-71820183D01*
X93182786Y-70701162D01*
X93512770Y-70280391D01*
X94138063Y-69356881D01*
X94767070Y-68254241D01*
X95368387Y-67035033D01*
X95910615Y-65761822D01*
X96261191Y-64804468D01*
X96456288Y-64245721D01*
X96629416Y-63781853D01*
X96763583Y-63456154D01*
X96841799Y-63311915D01*
X96848342Y-63308554D01*
X96972511Y-63398612D01*
G37*
%TD.AperFunction*%
%TD*%
M02*
